<?xml version="1.0" encoding="utf-8"?>
<!-- Generator: Adobe Illustrator 26.0.2, SVG Export Plug-In . SVG Version: 6.00 Build 0)  -->
<svg version="1.1" xmlns="http://www.w3.org/2000/svg" xmlns:xlink="http://www.w3.org/1999/xlink" x="0px" y="0px"
	 viewBox="0 0 285 284" style="enable-background:new 0 0 285 284;" xml:space="preserve">
<style type="text/css">
	.st0{display:none;}
	.st1{display:inline;fill:#C8D82A;}
	.st2{fill:#FFFFFF;}
</style>
<g id="圖層_2" class="st0">
	<rect class="st1" width="284" height="284"/>
</g>
<g id="圖層_3">
	<g>
		<path class="st2" d="M107.7,36.8l-8.4,3.5l3.7,8.9l-3.6,1.5l-8.8-21l13.3-5.6l1.2,2.9l-9.7,4.1l2.6,6.2l8.4-3.5L107.7,36.8z"/>
		<path class="st2" d="M121.8,34l-4.3,0.9l1.9,8.5l-3.9,0.8l-4.8-22.2l7.8-1.7c2.6-0.6,4.7-0.4,6.3,0.4s2.7,2.4,3.2,4.5
			c0.3,1.5,0.2,2.8-0.3,4c-0.5,1.2-1.3,2.1-2.5,3l7,8.2l0,0.2l-4.1,0.9L121.8,34z M116.8,31.8l4-0.9c1.3-0.3,2.2-0.8,2.8-1.6
			c0.6-0.8,0.8-1.8,0.5-2.9c-0.3-1.2-0.8-2-1.6-2.5c-0.8-0.5-1.9-0.6-3.2-0.3l-4.1,0.9L116.8,31.8z"/>
		<path class="st2" d="M152.8,29.4c0,2.2-0.3,4.2-1.1,5.9c-0.7,1.7-1.8,3-3.2,3.9c-1.4,0.9-3.1,1.4-4.9,1.4c-1.8,0-3.5-0.4-5-1.3
			c-1.5-0.9-2.6-2.1-3.4-3.8c-0.8-1.7-1.2-3.6-1.3-5.7l0-1.3c0-2.2,0.3-4.2,1.1-5.9c0.8-1.7,1.8-3,3.3-4c1.4-0.9,3.1-1.4,4.9-1.4
			c1.9,0,3.5,0.4,5,1.3c1.4,0.9,2.6,2.1,3.4,3.8c0.8,1.7,1.2,3.6,1.3,5.8L152.8,29.4z M148.8,28.3c0-2.5-0.5-4.4-1.5-5.8
			c-1-1.3-2.3-2-4.1-1.9c-1.7,0-3,0.7-4,2.1c-0.9,1.4-1.4,3.3-1.4,5.7l0,1.3c0,2.5,0.6,4.4,1.6,5.8c1,1.3,2.4,2,4.1,2
			c1.8,0,3.1-0.7,4-2.1c0.9-1.3,1.4-3.3,1.3-5.9L148.8,28.3z"/>
		<path class="st2" d="M174.3,44.3l-3.9-0.8l-6.7-17.9l-3.3,15.8l-3.9-0.8l4.6-22.3l3.9,0.8l6.7,17.9l3.3-15.9l3.8,0.8L174.3,44.3z"
			/>
		<path class="st2" d="M201.3,34.3l-6.5-2.8l-7.8,18l-3.6-1.6l7.8-18l-6.5-2.8l1.3-2.9l16.6,7.2L201.3,34.3z"/>
		<path class="st2" d="M202.6,48.5l-7.1-4l1.5-2.7l7.1,4L202.6,48.5z"/>
		<path class="st2" d="M218.4,57.5l-7.4-5.7l-4.3,5.5l8.7,6.7l-1.9,2.5l-11.8-9.1l13.9-18l11.7,9l-1.9,2.5l-8.6-6.6l-3.8,5l7.4,5.7
			L218.4,57.5z"/>
		<path class="st2" d="M227.6,82l-2.6-3l5.5-18.3l-12.1,10.6l-2.6-3l17.1-15l2.6,3l-5.5,18.3l12.2-10.7l2.6,3L227.6,82z"/>
		<path class="st2" d="M230,85.7l19.9-11.1l3.3,5.9c1,1.8,1.5,3.5,1.4,5.3c0,1.8-0.5,3.5-1.6,5s-2.5,2.8-4.3,3.9l-1,0.6
			c-1.9,1-3.7,1.6-5.6,1.6c-1.8,0-3.5-0.4-5.1-1.4c-1.5-1-2.8-2.3-3.8-4.1L230,85.7z M249,79.6l-14.3,8l1.3,2.3c1,1.8,2.4,2.9,4,3.2
			s3.6-0.1,5.7-1.2l1.1-0.6c2.2-1.2,3.5-2.6,4.2-4.2c0.6-1.6,0.4-3.2-0.6-5L249,79.6z"/>
		<path class="st2" d="M255.4,122.4l-2.2-9.1l-6.8,1.6l2.6,10.6l-3.1,0.7l-3.5-14.5l22.1-5.3l3.5,14.4l-3.1,0.7l-2.5-10.5l-6.1,1.5
			l2.2,9.1L255.4,122.4z"/>
		<path class="st2" d="M247.1,147.3l-0.2-4l15.7-10.8l-16.1,0.6l-0.2-4l22.7-0.9l0.2,4l-15.8,10.8l16.2-0.6l0.2,3.9L247.1,147.3z"/>
		<path class="st2" d="M246.7,169.4c-0.9-1-1.5-2.3-1.8-3.8c-0.3-1.5-0.3-3.2,0-5c0.3-1.9,1-3.5,2.2-4.8c1.1-1.3,2.5-2.2,4.2-2.7
			s3.6-0.6,5.8-0.3l1.8,0.3c3.4,0.6,5.9,1.9,7.5,3.8s2.2,4.4,1.7,7.3c-0.4,2.5-1.4,4.4-2.9,5.6c-1.5,1.2-3.4,1.8-5.8,1.7l0.7-3.8
			c2.8,0,4.4-1.3,4.9-4c0.3-1.7-0.1-3.2-1.2-4.3c-1.1-1.1-2.9-1.9-5.3-2.4l-1.7-0.3c-2.4-0.4-4.4-0.2-5.9,0.5s-2.4,2.1-2.8,3.9
			c-0.3,2-0.1,3.5,0.6,4.5l4.4,0.8l0.8-4.6l3,0.5l-1.5,8.5L246.7,169.4z"/>
		<path class="st2" d="M240.9,176.9l1.3-3.7l21.6,7.3l-1.3,3.7L240.9,176.9z"/>
		<path class="st2" d="M231.1,197.6l1.8-3.5l19-1.5l-14.3-7.5l1.8-3.5l20.2,10.5l-1.8,3.5l-19.1,1.5l14.4,7.5l-1.8,3.5L231.1,197.6z
			"/>
		<path class="st2" d="M228.1,217.9l5.9-7.3l-5.4-4.4l-6.9,8.5l-2.5-2l9.3-11.6l17.7,14.3l-9.3,11.5l-2.5-2l6.8-8.4l-4.9-3.9
			l-5.9,7.3L228.1,217.9z"/>
		<path class="st2" d="M213.6,231.3l7-6.1l-4.6-5.3l-8.2,7.2l-2.1-2.4l11.2-9.8l15,17.1l-11.1,9.7l-2.1-2.4l8.1-7.1l-4.1-4.7l-7,6.1
			L213.6,231.3z"/>
		<path class="st2" d="M200.4,238.2l3.8-2.2l-4.4-7.5l3.4-2l11.6,19.6l-6.9,4.1c-2.3,1.3-4.3,1.9-6.1,1.6c-1.8-0.3-3.3-1.4-4.4-3.3
			c-0.8-1.3-1.1-2.6-1-3.9c0.1-1.3,0.6-2.5,1.4-3.6l-9.2-5.6l-0.1-0.2l3.6-2.2L200.4,238.2z M205.9,238.7l-3.5,2.1
			c-1.1,0.7-1.9,1.5-2.2,2.5c-0.3,1-0.2,1.9,0.4,2.9c0.6,1,1.4,1.7,2.3,1.9c0.9,0.2,2,0,3.2-0.7l3.6-2.1L205.9,238.7z"/>
		<path class="st2" d="M173,250.6c0.1,0.6,0.1,1.1-0.2,1.5c-0.3,0.5-0.7,0.8-1.4,0.9c-0.7,0.2-1.2,0.1-1.7-0.2
			c-0.5-0.3-0.8-0.7-0.9-1.3c-0.1-0.6-0.1-1.1,0.2-1.5c0.3-0.5,0.7-0.8,1.4-0.9c0.7-0.2,1.2-0.1,1.7,0.2
			C172.6,249.6,172.9,250,173,250.6z"/>
		<path class="st2" d="M128.2,266.4l1-15.2c0.2-2.4,1.1-4.3,2.7-5.6s3.7-1.9,6.3-1.7c2.6,0.2,4.6,1,6.1,2.5c1.4,1.5,2.1,3.5,1.9,5.9
			l-1,15.2l-3.9-0.3l1-15.2c0.1-1.5-0.2-2.7-0.9-3.6c-0.7-0.9-1.8-1.3-3.3-1.4c-3-0.2-4.7,1.3-4.9,4.5l-1,15.1L128.2,266.4z"/>
		<path class="st2" d="M121.4,241.8l3.9,0.8l-4.8,22.2l-3.9-0.8L121.4,241.8z"/>
		<path class="st2" d="M116.4,238.5l2.8,0.9L103,260l-2.8-0.9L116.4,238.5z"/>
		<path class="st2" d="M79.2,248.9l7.1-13.5c1.1-2.1,2.7-3.5,4.7-4c2-0.5,4.2-0.2,6.5,1c2.3,1.2,3.8,2.8,4.5,4.7
			c0.7,1.9,0.5,4-0.7,6.2l-7.1,13.4l-3.5-1.8l7.1-13.5c0.7-1.3,0.9-2.6,0.6-3.6c-0.3-1.1-1.1-2-2.5-2.7c-2.7-1.4-4.8-0.7-6.3,2.1
			l-7,13.4L79.2,248.9z"/>
		<path class="st2" d="M71.3,232.9l-8.9,3.4l-3.5-2.9l12.5-4.4l1.8-13.3l3.6,2.9l-1.5,9.6l9.1-3.4l3.6,2.9L75.1,232l-1.8,13.1
			l-3.5-2.9L71.3,232.9z"/>
		<path class="st2" d="M65.7,207.4l-18.7,13l-3.8-5.5c-1.1-1.6-1.8-3.4-2-5.2c-0.2-1.8,0.2-3.5,1.1-5.1s2.2-3.1,3.9-4.3l0.9-0.7
			c1.8-1.2,3.6-2,5.4-2.2s3.6,0.1,5.2,0.8s3,2,4.2,3.7L65.7,207.4z M47.4,215.3l13.5-9.4l-1.5-2.1c-1.2-1.7-2.6-2.6-4.3-2.8
			c-1.7-0.2-3.5,0.4-5.6,1.8l-1,0.7c-2,1.4-3.3,2.9-3.7,4.6c-0.5,1.6-0.1,3.3,1.1,4.9L47.4,215.3z"/>
		<path class="st2" d="M39.6,182.1l3.8,8.5l6.4-2.9l-4.5-10l2.9-1.3l6.1,13.6l-20.8,9.3l-6-13.5l2.9-1.3l4.4,9.9l5.7-2.6l-3.8-8.5
			L39.6,182.1z"/>
		<path class="st2" d="M38.8,163.4c-1,0.2-1.6,0.8-2,1.6s-0.6,2.2-0.7,4.1c-0.1,1.9-0.4,3.5-0.8,4.7c-0.8,2.3-2.2,3.7-4.2,4.2
			c-1.8,0.4-3.4,0.1-4.9-1.1c-1.5-1.2-2.5-2.9-3.1-5.2c-0.4-1.5-0.4-3-0.1-4.3c0.3-1.3,0.9-2.5,1.7-3.4s2-1.6,3.2-1.9l0.9,3.8
			c-1.2,0.3-2,0.9-2.4,1.7s-0.6,2-0.2,3.3c0.3,1.3,0.8,2.2,1.5,2.7c0.7,0.6,1.5,0.7,2.5,0.5c0.8-0.2,1.4-0.7,1.8-1.6
			c0.4-0.9,0.6-2.2,0.7-4.1c0.1-1.8,0.3-3.4,0.7-4.6c0.4-1.2,1-2.1,1.7-2.8c0.7-0.7,1.7-1.2,2.8-1.4c1.8-0.4,3.5-0.1,4.9,1.1
			s2.4,2.9,3,5.4c0.4,1.6,0.4,3.1,0.2,4.6c-0.3,1.5-0.8,2.7-1.7,3.7c-0.9,1-2,1.7-3.4,2l-0.9-3.8c1.3-0.3,2.1-1,2.6-1.9
			c0.5-1,0.5-2.3,0.2-3.8c-0.3-1.3-0.8-2.3-1.5-2.8C40.5,163.3,39.7,163.2,38.8,163.4z"/>
		<path class="st2" d="M43.1,150.5l0.4,3.9l-22.6,2.2l-0.4-3.9L43.1,150.5z"/>
		<path class="st2" d="M40.4,128c1,0.9,1.8,2.1,2.3,3.5c0.5,1.5,0.7,3.2,0.6,5c-0.1,1.9-0.6,3.6-1.6,5s-2.2,2.5-3.9,3.2
			c-1.6,0.7-3.5,1-5.7,0.9l-1.8-0.1c-3.4-0.2-6.1-1.1-7.9-2.9c-1.8-1.7-2.7-4.1-2.5-7c0.1-2.5,0.9-4.5,2.2-5.9
			c1.3-1.4,3.2-2.2,5.5-2.4l-0.2,3.9c-2.8,0.3-4.2,1.8-4.4,4.5c-0.1,1.8,0.5,3.1,1.7,4.1c1.2,1,3.1,1.6,5.5,1.7l1.7,0.1
			c2.5,0.1,4.4-0.3,5.8-1.3s2.2-2.4,2.3-4.2c0.1-2-0.3-3.5-1.1-4.4l-4.4-0.2l-0.2,4.7l-3-0.2l0.4-8.6L40.4,128z"/>
		<path class="st2" d="M48.7,106.8l-1,3.8l-18.2,5.5l15.6,4.3l-1,3.8l-21.9-6l1-3.8l18.3-5.5l-15.6-4.3l1-3.8L48.7,106.8z"/>
		<path class="st2" d="M47.4,86.3l-4.2,8.4l6.3,3.1l4.9-9.8l2.8,1.4l-6.7,13.3L30.2,92.5l6.6-13.2l2.8,1.4l-4.9,9.7l5.6,2.8l4.2-8.4
			L47.4,86.3z"/>
		<path class="st2" d="M57,74.9l-2.7,3.5l7,5.3l-2.4,3.1L40.8,73.1l4.8-6.4c1.6-2.1,3.3-3.3,5.1-3.8c1.8-0.4,3.6,0,5.4,1.4
			c1.2,0.9,2,2,2.4,3.2c0.4,1.2,0.4,2.5,0,3.9l10.6,1.7l0.2,0.1l-2.6,3.4L57,74.9z M51.8,76.5l2.5-3.2c0.8-1.1,1.2-2.1,1.1-3.1
			c-0.1-1-0.6-1.9-1.5-2.6c-1-0.7-1.9-1-2.9-0.9c-1,0.1-1.8,0.8-2.7,1.8l-2.5,3.3L51.8,76.5z"/>
		<path class="st2" d="M77.7,53.1c-0.3-0.5-0.5-1-0.4-1.5c0.1-0.5,0.4-1,0.9-1.4c0.6-0.4,1.1-0.6,1.6-0.5s1,0.4,1.3,0.8
			c0.3,0.5,0.5,1,0.4,1.5c-0.1,0.5-0.4,1-1,1.4c-0.5,0.4-1.1,0.6-1.6,0.5C78.5,53.8,78,53.5,77.7,53.1z"/>
	</g>
</g>
</svg>
