<?xml version="1.0" encoding="utf-8"?>
<!-- Generator: Adobe Illustrator 16.0.0, SVG Export Plug-In . SVG Version: 6.00 Build 0)  -->
<!DOCTYPE svg PUBLIC "-//W3C//DTD SVG 1.1//EN" "http://www.w3.org/Graphics/SVG/1.1/DTD/svg11.dtd">
<svg version="1.1" id="圖層_1" xmlns="http://www.w3.org/2000/svg" xmlns:xlink="http://www.w3.org/1999/xlink" x="0px" y="0px"
	 width="64px" height="42px" viewBox="274 372.819 64 42" enable-background="new 274 372.819 64 42" xml:space="preserve">
<path fill="#B18B59" d="M336.623,405.906c-0.6,0.602-1.324,0.902-2.172,0.902c-0.847,0-1.571-0.301-2.172-0.902
	c-0.602-0.6-0.901-1.324-0.901-2.172c0-0.847,0.287-1.572,0.86-2.172c0.602-0.602,1.339-0.902,2.213-0.902
	c0.848,0,1.572,0.301,2.172,0.902c0.602,0.6,0.902,1.325,0.902,2.172C337.526,404.582,337.225,405.307,336.623,405.906z"/>
<g>
	<path fill="#FFFFFF" d="M285.2,384.131h5.377v15.349c0,1.424-0.331,2.694-0.991,3.811c-0.661,1.117-1.583,1.981-2.766,2.597
		c-1.183,0.614-2.502,0.921-3.956,0.921c-2.438,0-4.333-0.614-5.685-1.844c-1.352-1.229-2.029-2.97-2.029-5.224h5.409
		c0,1.024,0.177,1.767,0.53,2.229c0.354,0.461,0.945,0.691,1.775,0.691c0.748,0,1.324-0.279,1.729-0.838
		c0.404-0.558,0.607-1.339,0.607-2.343V384.131z"/>
	<path fill="#FFFFFF" d="M301.779,406.809c-2.551,0-4.615-0.76-6.192-2.281c-1.578-1.521-2.366-3.5-2.366-5.938v-0.432
		c0-1.699,0.315-3.2,0.945-4.501c0.63-1.3,1.55-2.307,2.758-3.019c1.208-0.712,2.643-1.068,4.302-1.068
		c2.335,0,4.179,0.725,5.532,2.174c1.351,1.449,2.027,3.47,2.027,6.061v2.013H298.49c0.184,0.932,0.589,1.665,1.213,2.197
		c0.625,0.533,1.435,0.799,2.428,0.799c1.639,0,2.919-0.573,3.841-1.721l2.365,2.796c-0.645,0.892-1.559,1.601-2.742,2.129
		C304.413,406.546,303.14,406.809,301.779,406.809z M301.195,393.565c-1.516,0-2.417,1.004-2.705,3.011h5.224v-0.398
		c0.021-0.83-0.189-1.473-0.629-1.929C302.644,393.793,302.014,393.565,301.195,393.565z"/>
	<path fill="#FFFFFF" d="M310.213,398.066c0-2.632,0.568-4.706,1.706-6.222c1.136-1.516,2.724-2.274,4.762-2.274
		c1.485,0,2.735,0.584,3.75,1.751v-8.419h5.192v23.6h-4.655l-0.261-1.782c-1.065,1.394-2.418,2.089-4.057,2.089
		c-1.977,0-3.544-0.758-4.701-2.273S310.213,400.863,310.213,398.066z M315.391,398.389c0,2.951,0.86,4.426,2.581,4.426
		c1.147,0,1.967-0.48,2.459-1.444v-6.33c-0.472-0.983-1.28-1.475-2.428-1.475c-1.599,0-2.464,1.291-2.597,3.873L315.391,398.389z"/>
</g>
</svg>
