<?xml version="1.0" encoding="utf-8"?>
<!-- Generator: Adobe Illustrator 26.0.2, SVG Export Plug-In . SVG Version: 6.00 Build 0)  -->
<svg version="1.1" id="圖層_1" xmlns="http://www.w3.org/2000/svg" xmlns:xlink="http://www.w3.org/1999/xlink" x="0px" y="0px"
	 viewBox="0 0 65 70" style="enable-background:new 0 0 65 70;" xml:space="preserve">
<style type="text/css">
	.st0{fill-rule:evenodd;clip-rule:evenodd;fill:#B18B59;}
</style>
<path class="st0" d="M26.1,14.7c-0.2-1.1-0.3-2.2-0.4-3.3c-0.1-1.7-0.1-3.3-0.1-5c0-0.7-0.1-2.5-0.1-2.8c0.3-2.3,2.2-2.6,2.7-2.7
	c0.3,0,2.9-0.3,3.5,2.6c0.7,3.6,0.9,7.3,0.7,10.9c0.6,3.1,1.6,6.1,2.9,8.8c5.3,10.9,15.3,12,26.2,11.9c1.7,0,3.1,1.3,3.1,3
	c0.1,1.7-1.2,3.1-2.8,3.3C55.7,42,44.9,46.9,41.2,52c-0.8,1.1-1.2,3.6-1.8,6.1c-0.8,3.5-1.8,6.9-2.9,8.4c-0.2,0.2-2.2,2.5-2.8,2.9
	c-1.5,0.8-2.6,0.3-3.3-0.1c-0.7-0.4-1.4-1.3-1.7-2.7c-0.3-1.4,0-4.4-0.1-5.1c-0.2-2.3-0.6-6.8-1.6-10.7c-0.5-2.1-1.1-4-1.9-5
	c-3.3-3.6-8.6-3-13.1-2.5c-0.5,0.1-1,0.1-1.5,0.2c-1.8,0.5-3.8,0.9-5.8,1.2c-3.1,0.4-3.6-2.5-3.6-2.7c-0.1-0.4-0.3-2.5,2.1-3.4
	c0.3-0.1,2.1-0.5,2.8-0.7c1-0.2,2-0.4,3-0.6C19.4,34.2,25.1,25,26.1,14.7z M29.7,26.1c4,8.2,10,12.2,17.2,14h0
	c-4.5,2.3-8.5,5.3-10.7,8.2c-0.8,1.1-1.6,3.3-2.2,5.9c-0.4-2.3-0.9-4.8-1.5-7c-0.7-2.4-1.7-4.4-2.9-5.6c-2.2-2.3-4.9-3.6-7.8-4.2
	C25.3,34.2,27.9,30.4,29.7,26.1z"/>
</svg>
