<?xml version="1.0" encoding="utf-8"?>
<!-- Generator: Adobe Illustrator 26.0.2, SVG Export Plug-In . SVG Version: 6.00 Build 0)  -->
<svg version="1.1" id="圖層_1" xmlns="http://www.w3.org/2000/svg" xmlns:xlink="http://www.w3.org/1999/xlink" x="0px" y="0px"
	 viewBox="0 0 85.7 81.1" style="enable-background:new 0 0 85.7 81.1;" xml:space="preserve">
<style type="text/css">
	.st0{fill-rule:evenodd;clip-rule:evenodd;fill:#FFFFFF;}
</style>
<path class="st0" d="M42.8,36c-1.9-1.5-3.6-2.3-5-2.9c-13.3-5.6-23.7,3.4-30.3,14.1C5.7,50,4,55,4.3,59.2c0.3,3,1.5,5.6,4.4,6.9
	c3.1,1.5,7,0.8,10.8-1C25,62.6,30.4,57.8,33,54.6c3-3.7,7.1-9.9,10.2-16.5c1.9,1.7,3.8,4.1,5.6,7.5c0.8,1.5,1.3,3.4,1.6,5.5
	c-3.1,0.7-6.3,2-9.3,4c-2.5,1.7-7.1,6.3-9.4,10.8c-1.6,3.2-2,6.5,0,8.8c2.5,2.9,5.6,2.9,8.5,1.6c4.1-1.9,8-6.7,9.4-9.7
	c1.7-3.5,2.5-9.2,2.1-14.3c10.7-1.7,21.1,4.4,24.6,16.1c0.1,0.3,0.5,0.6,0.8,0.5c0.4-0.1,0.6-0.5,0.5-0.8
	c-3.7-12.4-14.7-18.9-26-17.1c-0.3-2.2-0.8-4.3-1.7-5.9c-2-3.7-4.1-6.3-6.2-8.2c0.6-1.2,1.1-2.5,1.6-3.7c2.2-5.6,3.4-11.1,2.5-15.2
	C45.9,8.6,38,4,29.2,3.3c-8.6-0.7-18.1,2.5-23.3,8.5c-0.2,0.3-0.2,0.7,0.1,0.9C6.3,13,6.7,13,6.9,12.7c5-5.7,14-8.7,22.2-8.1
	c8.1,0.6,15.6,4.8,17.5,13.6c0.9,3.9-0.3,9.1-2.4,14.4C43.8,33.7,43.3,34.8,42.8,36z M50.6,52.5c-2.9,0.7-5.9,1.9-8.7,3.8
	c-2.4,1.6-6.8,5.9-8.9,10.3c-1.3,2.7-1.8,5.4-0.2,7.3c2.1,2.3,4.6,2.3,6.9,1.2c3.8-1.8,7.4-6.2,8.8-9.1C50.2,62.7,51,57.3,50.6,52.5
	z M42.2,37.2c-1.8-1.5-3.6-2.4-4.9-2.9C24.7,29,14.9,37.7,8.6,47.8C7,50.5,5.3,55.2,5.7,59.1c0.2,2.5,1.2,4.7,3.6,5.8
	c2.8,1.3,6.3,0.6,9.7-1c5.3-2.5,10.5-7.1,13-10.2C35,50,39.1,43.8,42.2,37.2z"/>
<path class="st0" d="M76.9,67.6c-0.6-0.4-2.2-1.6-2.4-1.7c-0.7-0.5-1.1-0.6-1.5-0.7c-0.4-0.1-0.7-0.1-1.4-0.3
	c-0.4-0.1-0.7,0.1-0.8,0.4c-0.1,0.4,0.1,0.7,0.4,0.8c0.6,0.2,1,0.2,1.3,0.3c0.4,0.1,0.7,0.1,1.3,0.5c0.3,0.2,1.8,1.4,2.5,1.9
	c0.4,0.2,0.7,0.3,0.9,0.2c0.2-0.1,0.5-0.2,0.7-0.5c0.3-0.4,0.6-1.1,0.9-1.8c0.3-0.7,0.7-1.5,1.2-2.2c0.4-0.5,1-1,1.7-1.1
	c0.4,0,0.6-0.4,0.6-0.7c0-0.4-0.4-0.6-0.7-0.6c-1.1,0.1-1.9,0.7-2.6,1.6c-0.6,0.7-1,1.6-1.4,2.5c-0.2,0.5-0.4,1-0.6,1.3
	C77,67.5,77,67.6,76.9,67.6z"/>
</svg>
