<?xml version="1.0" encoding="utf-8"?>
<!-- Generator: Adobe Illustrator 26.0.2, SVG Export Plug-In . SVG Version: 6.00 Build 0)  -->
<svg version="1.1" id="圖層_1" xmlns="http://www.w3.org/2000/svg" xmlns:xlink="http://www.w3.org/1999/xlink" x="0px" y="0px"
	 viewBox="0 0 137 71" style="enable-background:new 0 0 137 71;" xml:space="preserve">
<style type="text/css">
	.st0{fill-rule:evenodd;clip-rule:evenodd;fill:#B18B59;}
</style>
<path class="st0" d="M110.9,25.8c-0.5,1.1-0.9,2-1.2,2.5c-1.4,3-5.7,10-7,15.9c-1,4.5-0.3,8.3,3.7,10c3.7,1.5,7.8-0.3,11.8-4
	c8.6-7.9,16.6-24.6,17.8-30.3c0.1-0.6-0.3-1.2-0.9-1.3c-0.6-0.1-1.2,0.3-1.3,0.9c-1.1,5.4-8.8,21.5-17.1,29.1
	c-3.2,3-6.5,4.7-9.5,3.5c-2.9-1.2-3.1-4.1-2.4-7.4c1.3-5.7,5.5-12.5,6.9-15.5c0.8-1.8,4.2-8.7,4.4-9.4c0.2-0.8-0.4-1.2-0.6-1.3
	c-0.1-0.1-0.9-0.4-1.5,0.4c-8.9,11.8-30.8,23.7-52.7,26.6C39.7,48.4,17.9,42.3,8.9,18c-0.2-0.6-0.9-0.9-1.5-0.7
	c-0.6,0.2-0.9,0.9-0.7,1.5c9.5,25.4,32.3,31.9,55,28.9C80.9,45.3,100,36,110.9,25.8z"/>
<path class="st0" d="M8.4,19.6c2.3,1.4,4.6,2.8,7,4c6.5,3.1,13.9,5,21.1,4.8c0.6,0,1.1-0.6,1.1-1.2c0-0.6-0.6-1.1-1.2-1.1
	c-6.8,0.2-13.9-1.6-20-4.5c-2.8-1.3-5.3-3-8-4.6c-0.1-0.1-1.3-0.8-1.6-0.9c-0.7-0.2-1,0.1-1.2,0.3c-0.1,0.1-0.3,0.4-0.3,0.7
	c0,0.2,0,0.7,0.2,1.4c0.6,2.1,2.6,6.7,2.9,7.5c2.9,9.1,4.1,18,5.6,27.4c0.1,0.6,0.7,1,1.3,0.9c0.6-0.1,1-0.7,0.9-1.3
	c-1.5-9.5-2.7-18.5-5.7-27.7C10.4,24.7,9.2,21.8,8.4,19.6z"/>
</svg>
