<?xml version="1.0" encoding="utf-8"?>
<!-- Generator: Adobe Illustrator 26.0.2, SVG Export Plug-In . SVG Version: 6.00 Build 0)  -->
<svg version="1.1" xmlns="http://www.w3.org/2000/svg" xmlns:xlink="http://www.w3.org/1999/xlink" x="0px" y="0px"
	 viewBox="0 0 230.9 225.8" style="enable-background:new 0 0 230.9 225.8;" xml:space="preserve">
<style type="text/css">
	.st0{display:none;}
	.st1{fill:none;}
	.st2{fill:#B18B59;}
</style>
<g id="圖層_1" class="st0">
	
		<image style="display:inline;overflow:visible;" width="262" height="262" xlink:href="1CA8943D.png"  transform="matrix(1 0 0 1 261.8889 89.4444)">
	</image>
</g>
<g id="圖層_2">
	<g>
		<path class="st1" d="M150.8,24.6L28.5,146.9c1.4,3.6,3,7.2,4.8,10.7L161.4,29.4C158,27.5,154.4,26,150.8,24.6z"/>
		<path class="st1" d="M136.1,20.3L24.3,132.2c0.8,4.1,1.9,8.2,3.3,12.1L148.3,23.6C144.3,22.3,140.2,21.2,136.1,20.3z"/>
		<path class="st1" d="M66.9,32.9L36.8,63c-5.3,8.5-9.2,17.6-11.5,27l68.6-68.6C84.4,23.7,75.3,27.6,66.9,32.9z"/>
		<path class="st1" d="M119.1,18.5l-96.7,96.7c0.1,4.7,0.5,9.4,1.3,14.1L133.2,19.8C128.5,19,123.8,18.6,119.1,18.5z"/>
		<path class="st1" d="M98.3,20.3L24.2,94.4c-1.2,5.7-1.8,11.5-1.9,17.3l93.3-93.3C109.8,18.5,104,19.2,98.3,20.3z"/>
		<path class="st1" d="M163.7,30.6L34.5,159.8c1.8,3.2,3.8,6.4,6,9.4L173.1,36.6C170,34.4,166.9,32.4,163.7,30.6z"/>
		<path class="st1" d="M175,38.1l-133,133c2.2,2.9,4.6,5.6,7.2,8.3L183.3,45.3C180.7,42.7,177.9,40.4,175,38.1z"/>
		<path class="st1" d="M209.1,136.4l-68.8,68.8c9.4-2.3,18.4-6.2,26.8-11.4l30.6-30.6C203,154.8,206.8,145.8,209.1,136.4z"/>
		<path class="st1" d="M182.4,182c0.6-0.6,1.2-1.1,1.8-1.7s1.2-1.2,1.7-1.8L182.4,182z"/>
		<path class="st1" d="M210.6,97.1L101,206.7c4.7,0.8,9.4,1.3,14.1,1.4l96.8-96.8C211.9,106.5,211.4,101.8,210.6,97.1z"/>
		<path class="st1" d="M212,114.7l-93.4,93.4c5.8-0.1,11.6-0.7,17.3-1.8l74.3-74.3C211.3,126.2,211.9,120.5,212,114.7z"/>
		<path class="st1" d="M185,47.1L51,181.1c2.6,2.6,5.4,5,8.3,7.2l133-133C190,52.5,187.6,49.7,185,47.1z"/>
		<path class="st1" d="M206.7,82.1L86,202.8c4,1.4,8,2.5,12.1,3.3L210.1,94.2C209.2,90.1,208.1,86.1,206.7,82.1z"/>
		<path class="st1" d="M193.7,57.3L61.2,189.8c3,2.2,6.2,4.2,9.4,6L199.8,66.7C198,63.5,196,60.3,193.7,57.3z"/>
		<path class="st1" d="M201,68.9L72.8,197.1c3.5,1.8,7,3.4,10.7,4.8L205.8,79.6C204.4,75.9,202.8,72.4,201,68.9z"/>
		<path class="st2" d="M50.1,46.2C44.9,51.4,40.5,57,36.8,63l30.1-30.1C60.9,36.6,55.3,41,50.1,46.2z"/>
		<path class="st2" d="M93.9,21.3L25.2,89.9c-0.4,1.5-0.7,3-1,4.5l74.1-74.1C96.8,20.6,95.3,21,93.9,21.3z"/>
		<path class="st2" d="M115.6,18.5l-93.3,93.3c0,1.1,0,2.3,0,3.4l96.7-96.7C117.9,18.4,116.8,18.4,115.6,18.5z"/>
		<path class="st2" d="M133.2,19.8L23.7,129.3c0.2,1,0.3,1.9,0.5,2.9L136.1,20.3C135.1,20.1,134.2,20,133.2,19.8z"/>
		<path class="st2" d="M148.3,23.6L27.6,144.4c0.3,0.8,0.6,1.7,0.9,2.5L150.8,24.6C149.9,24.3,149.1,23.9,148.3,23.6z"/>
		<path class="st2" d="M161.4,29.4L33.3,157.5c0.4,0.7,0.8,1.5,1.2,2.2L163.7,30.6C162.9,30.2,162.2,29.8,161.4,29.4z"/>
		<path class="st2" d="M173.1,36.6L40.6,169.2c0.5,0.7,1,1.3,1.5,2l133-133C174.4,37.6,173.7,37.1,173.1,36.6z"/>
		<path class="st2" d="M184.2,46.2c-0.3-0.3-0.6-0.6-0.9-0.9L49.2,179.4c0.3,0.3,0.6,0.6,0.9,0.9c0.3,0.3,0.6,0.5,0.9,0.8L185,47.1
			C184.8,46.8,184.5,46.5,184.2,46.2z"/>
		<path class="st2" d="M192.2,55.3l-133,133c0.6,0.5,1.3,1,2,1.5L193.7,57.3C193.2,56.6,192.7,56,192.2,55.3z"/>
		<path class="st2" d="M199.8,66.7L70.6,195.9c0.7,0.4,1.5,0.8,2.2,1.2L201,68.9C200.6,68.2,200.2,67.4,199.8,66.7z"/>
		<path class="st2" d="M205.8,79.6L83.5,201.9c0.8,0.3,1.7,0.6,2.5,0.9L206.7,82.1C206.5,81.2,206.1,80.4,205.8,79.6z"/>
		<path class="st2" d="M210.1,94.2L98.1,206.1c1,0.2,1.9,0.4,2.9,0.5L210.6,97.1C210.4,96.1,210.3,95.2,210.1,94.2z"/>
		<path class="st2" d="M212,111.2L115.1,208c1.1,0,2.3,0,3.4,0l93.4-93.4C212,113.5,212,112.4,212,111.2z"/>
		<path class="st2" d="M210.1,131.9l-74.3,74.3c1.5-0.3,3-0.6,4.5-1l68.8-68.8C209.5,134.9,209.8,133.4,210.1,131.9z"/>
		<path class="st2" d="M197.7,163.2l-30.6,30.6c5.4-3.3,10.5-7.3,15.2-11.8l3.5-3.5C190.5,173.7,194.4,168.6,197.7,163.2z"/>
	</g>
</g>
</svg>
