<svg width="65" height="70" viewBox="0 0 65 70" fill="none" xmlns="http://www.w3.org/2000/svg">
<path fill-rule="evenodd" clip-rule="evenodd" d="M26.0649 14.706C25.8774 13.5935 25.7362 12.4937 25.6449 11.3937C25.5074 9.74367 25.5924 8.08105 25.5437 6.43105C25.5224 5.73105 25.4387 3.90608 25.4724 3.64358C25.7787 1.35608 27.6249 1.00603 28.1649 0.943534C28.4261 0.906034 31.1086 0.606168 31.6874 3.58117C32.3974 7.21867 32.6249 10.8811 32.3737 14.4686C32.9599 17.5186 33.9624 20.5561 35.2862 23.3061C40.5537 34.2436 50.5911 35.3061 61.4661 35.2061C63.1386 35.1811 64.5274 36.4936 64.6149 38.1561C64.7024 39.8311 63.4574 41.2811 61.7924 41.4311C55.7137 42.0186 44.9286 46.8936 41.1999 51.9686C40.4199 53.0311 39.9661 55.5937 39.3661 58.1062C38.5286 61.5937 37.5324 65.0436 36.4162 66.4936C36.2487 66.7186 34.2124 69.0187 33.6049 69.3562C32.1449 70.1562 30.9762 69.6936 30.3124 69.2686C29.6487 68.8436 28.8974 68.0061 28.5974 66.6186C28.2837 65.1686 28.5487 62.1935 28.4999 61.556C28.3224 59.2435 27.8599 54.7061 26.9162 50.8061C26.4074 48.7061 25.8649 46.7686 24.9674 45.8061C21.6449 42.2436 16.3324 42.7686 11.8587 43.3561C11.3449 43.4186 10.8312 43.4936 10.3187 43.5561C8.49742 44.0936 6.56363 44.4936 4.51988 44.7311C1.43363 45.0936 0.926161 42.2561 0.898661 42.0686C0.841161 41.6561 0.627389 39.5311 2.95364 38.6811C3.20739 38.5936 5.07991 38.1811 5.80116 38.0186C6.80616 37.7936 7.82239 37.6186 8.84239 37.4561C19.3786 34.1811 25.1012 24.981 26.0649 14.706ZM29.6812 26.0687C33.6587 34.2937 39.6949 38.2686 46.8499 40.0686H46.8487C42.3812 42.4061 38.3174 45.3312 36.1636 48.2687C35.3461 49.3812 34.5962 51.6186 33.9199 54.1311C33.5537 51.7936 33.0587 49.306 32.4049 47.181C31.6612 44.756 30.6599 42.7437 29.5424 41.5437C27.3849 39.2312 24.6774 37.9436 21.7661 37.3061C25.2511 34.2186 27.8937 30.3687 29.6812 26.0687Z" fill="#E4BD95"/>
</svg>
