<svg width="137" height="71" viewBox="0 0 137 71" fill="none" xmlns="http://www.w3.org/2000/svg">
<path fill-rule="evenodd" clip-rule="evenodd" d="M110.944 25.7738C110.435 26.8468 110.002 27.7737 109.776 28.2647C108.405 31.2561 104.1 38.2728 102.77 44.1643C101.754 48.6588 102.461 52.5135 106.507 54.1375C110.183 55.6134 114.357 53.841 118.355 50.1488C126.959 42.2025 134.992 25.5067 136.117 19.8361C136.239 19.217 135.839 18.6169 135.219 18.4945C134.603 18.3725 134.003 18.7729 133.881 19.3921C132.8 24.8335 125.067 40.8452 116.807 48.4741C113.578 51.4554 110.325 53.2128 107.355 52.0198C104.424 50.8439 104.258 47.926 104.995 44.6678C106.288 38.9339 110.514 32.1267 111.85 29.2148C112.686 27.3889 116.073 20.5154 116.222 19.8564C116.408 19.0312 115.852 18.6678 115.661 18.5623C115.512 18.4803 114.747 18.1193 114.121 18.9462C105.195 30.7325 83.3403 42.6404 61.4452 45.5223C39.7425 48.3791 17.9409 42.3176 8.8547 18.0369C8.63289 17.4476 7.97488 17.1482 7.38595 17.3672C6.79663 17.589 6.49722 18.247 6.71904 18.8363C16.2398 44.277 39.0054 50.777 61.7415 47.7845C80.9033 45.263 100.001 35.9612 110.944 25.7738Z" fill="#E4BD95"/>
<path fill-rule="evenodd" clip-rule="evenodd" d="M8.42985 19.6334C10.7517 20.9905 13.0204 22.4156 15.4491 23.5931C21.9189 26.7311 29.3062 28.6213 36.518 28.3624C37.1491 28.3383 37.6396 27.809 37.6179 27.1811C37.5938 26.55 37.0645 26.0596 36.4366 26.0812C29.5923 26.3311 22.5836 24.5177 16.4456 21.5399C13.6663 20.1908 11.0966 18.511 8.41431 16.9897C8.27951 16.9154 7.13421 16.2187 6.85209 16.1381C6.19624 15.9465 5.80234 16.2861 5.64023 16.4666C5.5029 16.6157 5.37419 16.8271 5.32294 17.1279C5.28219 17.375 5.31504 17.862 5.49745 18.5039C6.07539 20.5618 8.11217 25.1682 8.36641 25.9598C11.2829 35.0323 12.473 43.9624 13.9611 53.3328C14.0621 53.9545 14.647 54.3801 15.2683 54.282C15.8895 54.1839 16.3124 53.5984 16.2142 52.9772C14.708 43.488 13.4902 34.4464 10.5369 25.2641C10.364 24.7194 9.23984 21.7561 8.42985 19.6334Z" fill="#E4BD95"/>
</svg>
